<?xml version="1.0" encoding="UTF-8" standalone="no"?>
<!-- Created with Inkscape (http://www.inkscape.org/) -->

<svg
   width="128"
   height="128"
   viewBox="0 0 33.866665 33.866668"
   version="1.1"
   id="svg72"
   xmlns="http://www.w3.org/2000/svg"
   xmlns:svg="http://www.w3.org/2000/svg">
  <defs
     id="defs69" />
  <g
     id="layer1"
     transform="translate(-28.375012,-37.259043)">
    <ellipse
       cy="54.105434"
       cx="45.308346"
       id="path843-4-9-7"
       style="vector-effect:none;fill:#000000;fill-opacity:1;stroke:#fbfbfb;stroke-width:0.0674316px;stroke-linecap:butt;stroke-linejoin:miter;stroke-miterlimit:4;stroke-dasharray:none;stroke-dashoffset:0;stroke-opacity:0.9799"
       rx="16.899618"
       ry="16.812675" />
    <ellipse
       style="fill:#000000;fill-opacity:0.01;stroke-width:0.0434842"
       id="circle829-5-8"
       cy="54.105434"
       cx="45.308346"
       rx="11.160674"
       ry="11.103256" />
    <path
       id="path843-6-5"
       style="vector-effect:none;fill:#3771c8;fill-opacity:1;stroke:none;stroke-width:1.39376;stroke-linecap:butt;stroke-linejoin:miter;stroke-miterlimit:4;stroke-dasharray:none;stroke-dashoffset:0;stroke-opacity:0.9799"
       d="m 58.246261,54.105434 c 0,7.107082 -5.791221,12.868511 -12.935054,12.868511 -7.143833,0 -12.935054,-5.761429 -12.935054,-12.868511 0,-7.107082 5.791221,-12.86851 12.935054,-12.86851 7.143833,0 12.935054,5.761428 12.935054,12.86851 z" />
    <g
       style="fill:#ffffff"
       transform="matrix(0.03254081,0,0,0.03237339,36.752174,45.848603)"
       id="g833-5-8">
      <path
         style="fill:#ffffff;fill-opacity:1;stroke-width:1.193"
         id="path831-9-5"
         d="M 510.799,-25.365466 388.51614,10.197967 438.02579,-23.3135 C 406.7691,-16.25092 367.28068,-2.4359394 317.65174,19.861296 L 236.6468,104.31401 265.39818,45.31999 c -27.79698,15.461325 -57.26416,35.730454 -85.65765,59.47122 l -18.84945,76.71013 -4.05621,-56.78697 c -28.03558,25.76888 -54.40096,54.40096 -76.232924,84.58395 -22.941457,31.61459 -40.872299,65.01869 -49.855615,98.30348 L -2.800927,285.17334 c 3.00636879,28.27418 12.2998658,52.85005 27.54645,75.39782 L -15.363254,348.28322 C -6.248707,376.3188 8.6519064,394.45246 33.84814,409.1264 19.734909,448.85341 13.113739,490.36994 6.0034387,531.76716 l 21.9512643,3.69831 C 53.413397,281.71363 233.06779,119.94236 395.43556,48.266708 l 8.23173,20.734401 C 258.47876,134.0198 145.62064,243.77612 86.566963,401.96838 c 21.593367,0.1193 42.709527,-2.50531 62.274777,-7.51592 l 5.84572,-72.65392 15.62835,66.2117 c 13.00373,-4.77202 24.93377,-10.49843 35.5515,-17.17925 l -24.69517,-51.89565 39.13051,41.51652 c 9.54403,-7.63523 17.41785,-16.22485 23.38287,-25.64958 36.26731,-56.66766 74.20482,-112.97743 148.88683,-160.10106 l -54.52025,-19.32666 83.62954,2.50531 c 13.60024,-6.91942 27.91628,-15.38975 38.77261,-23.38287 l -59.29227,-4.77201 89.11736,-20.99687 c 6.91942,-6.91942 13.36164,-14.196737 19.20735,-21.474058 20.63896,-26.174497 34.5971,-53.422696 31.2567,-78.2013779 -1.55091,-12.3953061 -8.94753,-24.0509501 -20.99687,-30.5766791 -2.9825,-1.550904 -6.20361,-2.922858 -8.94752,-3.841471 z" />
    </g>
    <ellipse
       style="vector-effect:none;fill:none;fill-opacity:1;stroke:#fbfbfb;stroke-width:2.09158;stroke-linecap:butt;stroke-linejoin:miter;stroke-miterlimit:4;stroke-dasharray:6.27475, 2.09158;stroke-dashoffset:0;stroke-opacity:0.9799"
       id="circle6271"
       cx="45.308346"
       cy="54.105434"
       rx="14.811167"
       ry="14.734969" />
  </g>
</svg>
